<svg id="Calque_1" data-name="Calque 1" xmlns="http://www.w3.org/2000/svg" viewBox="0 0 436.53 102.62"><defs><style>.cls-1{fill:#121c42;}.cls-2{fill:#6d63ff;}.cls-3{fill:#fff;}</style></defs><path class="cls-1" d="M197.89,174.6c-4.06,0-7.21-1.21-9.48-3.64S185,165,185,160.22v-11h9.11v10.58a22.17,22.17,0,0,0,.23,3.38,5,5,0,0,0,1,2.46,2.77,2.77,0,0,0,2.29.91,2.8,2.8,0,0,0,2.28-.89,5.25,5.25,0,0,0,1-2.54,27.1,27.1,0,0,0,.24-3.88V112h9.42v46.72q0,7.63-3.35,11.74A11.33,11.33,0,0,1,197.89,174.6Z" transform="translate(-64.4 -91.63)"/><path class="cls-1" d="M220,173.89V112h20.74v8.12H229.42v18h10.76v8H229.42v19.68h11.75v8.12Z" transform="translate(-64.4 -91.63)"/><path class="cls-1" d="M244.47,173.89,253.29,112h12.45l9.39,61.87h-8.79l-1.48-11h-10l-1.34,11Zm11.32-18.59h8.09l-4.15-31.08h-.14Z" transform="translate(-64.4 -91.63)"/><path class="cls-1" d="M280.72,173.89V112h7.38l13.11,37.12-.67-16.87V112H309v61.87h-6.68l-13.47-38.42.53,16.24v22.18Z" transform="translate(-64.4 -91.63)"/><path class="cls-2" d="M329.58,174.6a15.34,15.34,0,0,1-6.45-1.21,9.61,9.61,0,0,1-4.08-3.56,16,16,0,0,1-2.12-5.69,41.73,41.73,0,0,1-.64-7.65V151h8.93v6.23a21.81,21.81,0,0,0,.85,7.17,3.25,3.25,0,0,0,3.34,2.18,3.71,3.71,0,0,0,2.55-.79,4.37,4.37,0,0,0,1.16-2.54,27.74,27.74,0,0,0,.3-4.55,13.9,13.9,0,0,0-1.46-6.36,25.86,25.86,0,0,0-4.42-6L323,141.62a33.92,33.92,0,0,1-3.42-4.18,18.86,18.86,0,0,1-3.33-11,24.81,24.81,0,0,1,1.2-8.26,9.5,9.5,0,0,1,4-5.12,14.94,14.94,0,0,1,7.81-1.74,14.33,14.33,0,0,1,6.13,1.14,8.72,8.72,0,0,1,3.76,3.34,15,15,0,0,1,1.92,5.35,40.69,40.69,0,0,1,.56,7.19v3.83H333V127.7a30.31,30.31,0,0,0-.3-4.68,5.55,5.55,0,0,0-1.11-2.79,2.94,2.94,0,0,0-2.35-.93,4,4,0,0,0-2.39.65,3.62,3.62,0,0,0-1.32,2,12.47,12.47,0,0,0-.41,3.5,10.08,10.08,0,0,0,.5,3.34,9.26,9.26,0,0,0,1.51,2.71c.68.86,1.52,1.84,2.53,2.91l5.1,5.52a33.4,33.4,0,0,1,5.69,8.2,21.65,21.65,0,0,1,2,9.49,31.55,31.55,0,0,1-1.19,9.33,10.5,10.5,0,0,1-4,5.71A13.35,13.35,0,0,1,329.58,174.6Z" transform="translate(-64.4 -91.63)"/><path class="cls-2" d="M345.4,173.89,354.23,112h12.44l9.39,61.87h-8.79l-1.48-11h-10l-1.34,11Zm11.32-18.59h8.09l-4.15-31.08h-.14Z" transform="translate(-64.4 -91.63)"/><path class="cls-2" d="M381.65,173.89V112h11.71l8.79,45.21L410.41,112h11.78v61.87h-8.41V150.83l.35-21.16-8.33,43.94h-7.49l-8.68-43.94.35,21.16v23.06Z" transform="translate(-64.4 -91.63)"/><path class="cls-2" d="M431.71,173.89V112h9.42v61.87Z" transform="translate(-64.4 -91.63)"/><path class="cls-2" d="M461.88,174.6a15.28,15.28,0,0,1-6.45-1.21,9.49,9.49,0,0,1-4.08-3.56,15.77,15.77,0,0,1-2.13-5.69,41.79,41.79,0,0,1-.63-7.65V151h8.93v6.23a21.87,21.87,0,0,0,.84,7.17,3.26,3.26,0,0,0,3.34,2.18,3.67,3.67,0,0,0,2.55-.79,4.37,4.37,0,0,0,1.16-2.54,27.74,27.74,0,0,0,.3-4.55,13.9,13.9,0,0,0-1.46-6.36,25.51,25.51,0,0,0-4.41-6l-4.57-4.71a33.12,33.12,0,0,1-3.43-4.18,19.43,19.43,0,0,1-2.43-4.94,19.7,19.7,0,0,1-.89-6.1,25.09,25.09,0,0,1,1.19-8.26,9.52,9.52,0,0,1,4.05-5.12,14.9,14.9,0,0,1,7.8-1.74,14.41,14.41,0,0,1,6.14,1.14,8.84,8.84,0,0,1,3.76,3.34,15.22,15.22,0,0,1,1.91,5.35,40.62,40.62,0,0,1,.57,7.19v3.83h-8.69V127.7A30.31,30.31,0,0,0,465,123a5.64,5.64,0,0,0-1.1-2.79,3,3,0,0,0-2.36-.93,4,4,0,0,0-2.39.65,3.62,3.62,0,0,0-1.32,2,12.52,12.52,0,0,0-.4,3.5,10.09,10.09,0,0,0,.49,3.34,9.5,9.5,0,0,0,1.51,2.71c.68.86,1.52,1.84,2.53,2.91l5.1,5.52a33.18,33.18,0,0,1,5.7,8.2,21.79,21.79,0,0,1,2,9.49,31.23,31.23,0,0,1-1.19,9.33,10.45,10.45,0,0,1-4,5.71A13.32,13.32,0,0,1,461.88,174.6Z" transform="translate(-64.4 -91.63)"/><path class="cls-2" d="M484.59,173.89V120.18h-7.24V112h23.59v8.16h-7v53.71Z" transform="translate(-64.4 -91.63)"/><rect class="cls-2" width="102.62" height="102.62" rx="51.31"/><rect class="cls-3" x="65.2" y="28.16" width="9.27" height="9.26" rx="4.63"/><rect class="cls-3" x="28.15" y="28.16" width="27.79" height="9.26" rx="4.63"/><rect class="cls-3" x="65.2" y="46.68" width="9.27" height="27.79" rx="4.63"/><path class="cls-3" d="M120.34,142.94v18.52a4.63,4.63,0,0,1-4.63,4.63h0a4.63,4.63,0,0,1-4.63-4.63V152.2a4.63,4.63,0,0,0-4.63-4.63H97.18a4.63,4.63,0,0,1-4.63-4.63h0a4.63,4.63,0,0,1,4.63-4.63h18.53A4.63,4.63,0,0,1,120.34,142.94Z" transform="translate(-64.4 -91.63)"/><rect class="cls-3" x="28.15" y="65.21" width="9.26" height="9.26" rx="4.63"/></svg>