<svg id="Calque_1" data-name="Calque 1" xmlns="http://www.w3.org/2000/svg" viewBox="0 0 153.51 153.51"><defs><style>.cls-1{fill:#6d63ff;}.cls-2{fill:#fff;}</style></defs><rect class="cls-1" width="153.51" height="153.51" rx="76.75"/><rect class="cls-2" x="97.53" y="42.12" width="13.87" height="13.85" rx="6.93"/><rect class="cls-2" x="42.11" y="42.12" width="41.57" height="13.85" rx="6.93"/><rect class="cls-2" x="97.53" y="69.82" width="13.87" height="41.57" rx="6.93"/><path class="cls-2" d="M273.07,144.56v27.71a6.93,6.93,0,0,1-6.93,6.93h0a6.93,6.93,0,0,1-6.93-6.93V158.42a6.92,6.92,0,0,0-6.92-6.93H238.42a6.92,6.92,0,0,1-6.92-6.92h0a6.92,6.92,0,0,1,6.92-6.93h27.72A6.93,6.93,0,0,1,273.07,144.56Z" transform="translate(-189.39 -67.81)"/><rect class="cls-2" x="42.11" y="97.54" width="13.85" height="13.85" rx="6.93"/></svg>